<svg width="29" height="29" viewBox="0 0 29 29" fill="#D9D9D9" xmlns="http://www.w3.org/2000/svg">
<path fill-rule="evenodd" clip-rule="evenodd" d="M18.0571 20.0359C16.1617 21.5093 13.78 22.3867 11.1933 22.3867C5.01142 22.3867 0 17.3752 0 11.1933C0 5.01142 5.01142 0 11.1933 0C17.3752 0 22.3867 5.01142 22.3867 11.1933C22.3867 13.78 21.5092 16.1617 20.0358 18.0572L28.5902 26.6115C29.1366 27.1579 29.1366 28.0438 28.5902 28.5903C28.0438 29.1367 27.1579 29.1367 26.6115 28.5903L18.0571 20.0359ZM20.148 11.1932C20.148 16.1388 16.1388 20.1479 11.1933 20.1479C6.24779 20.1479 2.23865 16.1388 2.23865 11.1932C2.23865 6.24772 6.24779 2.23858 11.1933 2.23858C16.1388 2.23858 20.148 6.24772 20.148 11.1932Z" fill="#D9D9D9"/>
</svg>
